<?xml version="1.0" encoding="UTF-8"?>
<!DOCTYPE svg PUBLIC "-//W3C//DTD SVG 1.1//EN" "http://www.w3.org/Graphics/SVG/1.1/DTD/svg11.dtd">
<svg xmlns="http://www.w3.org/2000/svg" version="1.1" width="120px" height="75px" style="shape-rendering:geometricPrecision; text-rendering:geometricPrecision; image-rendering:optimizeQuality; fill-rule:evenodd; clip-rule:evenodd" xmlns:xlink="http://www.w3.org/1999/xlink">
<g><path style="opacity:1" fill="#191919" d="M 59.5,-0.5 C 79.5,-0.5 99.5,-0.5 119.5,-0.5C 119.5,1.16667 119.5,2.83333 119.5,4.5C 118.504,4.41423 117.671,4.74756 117,5.5C 116.692,4.69194 116.192,4.02527 115.5,3.5C 112.731,5.10206 109.731,6.10206 106.5,6.5C 104.995,11.8563 101.829,15.8563 97,18.5C 96.8455,21.5246 95.3455,23.1913 92.5,23.5C 92.5,24.5 92.5,25.5 92.5,26.5C 91.1667,26.5 89.8333,26.5 88.5,26.5C 88.6567,25.1266 88.49,23.7932 88,22.5C 86.1642,21.3306 84.9976,19.664 84.5,17.5C 83.3112,16.5713 81.9778,16.238 80.5,16.5C 79.5354,13.7022 79.0354,11.0356 79,8.5C 76.6921,7.35887 74.8587,5.69221 73.5,3.5C 70.8932,6.7758 67.5598,10.1091 63.5,13.5C 62.596,12.791 62.2627,11.791 62.5,10.5C 65.1667,9.83333 65.1667,9.16667 62.5,8.5C 60.3102,7.05515 57.9769,5.72181 55.5,4.5C 57.3348,3.57227 57.6682,2.4056 56.5,1C 57.7375,0.76791 58.7375,0.26791 59.5,-0.5 Z"/></g>
<g><path style="opacity:1" fill="#949494" d="M -0.5,-0.5 C 0.166667,-0.5 0.833333,-0.5 1.5,-0.5C 1.5,0.833333 0.833333,1.5 -0.5,1.5C -0.5,0.833333 -0.5,0.166667 -0.5,-0.5 Z"/></g>
<g><path style="opacity:1" fill="#252525" d="M 27.5,-0.5 C 38.1667,-0.5 48.8333,-0.5 59.5,-0.5C 58.7375,0.26791 57.7375,0.76791 56.5,1C 57.6682,2.4056 57.3348,3.57227 55.5,4.5C 57.9769,5.72181 60.3102,7.05515 62.5,8.5C 62.5,9.16667 62.5,9.83333 62.5,10.5C 62.2627,11.791 62.596,12.791 63.5,13.5C 63.1583,14.3382 62.4916,14.6716 61.5,14.5C 61.0291,13.0992 60.3624,11.7658 59.5,10.5C 55.4959,14.7578 54.8292,14.4245 57.5,9.5C 56.5754,8.43764 55.5754,8.43764 54.5,9.5C 53.3449,9.42164 52.0116,9.08831 50.5,8.5C 50.7093,7.91395 51.0426,7.41395 51.5,7C 48.5184,6.50204 45.5184,6.33537 42.5,6.5C 41.7375,5.73209 40.7375,5.23209 39.5,5C 40.8213,3.45548 40.4879,2.28881 38.5,1.5C 37.0158,3.07365 35.3492,4.40698 33.5,5.5C 33.0024,4.39656 32.6691,3.39656 32.5,2.5C 30.7547,2.4762 28.9214,2.80953 27,3.5C 26.5,3.16667 26,2.83333 25.5,2.5C 26.376,1.74917 27.376,1.24917 28.5,1C 27.944,0.617425 27.6107,0.117425 27.5,-0.5 Z"/></g>
<g><path style="opacity:1" fill="#0d0d0d" d="M 1.5,-0.5 C 2.5,-0.5 3.5,-0.5 4.5,-0.5C 5.16667,2.16667 5.83333,2.16667 6.5,-0.5C 7.5,-0.5 8.5,-0.5 9.5,-0.5C 10.1667,2.16667 10.8333,2.16667 11.5,-0.5C 12.5,-0.5 13.5,-0.5 14.5,-0.5C 15.0042,4.24777 16.3375,4.5811 18.5,0.5C 20.8459,4.03057 22.8459,3.69724 24.5,-0.5C 25.5,-0.5 26.5,-0.5 27.5,-0.5C 27.6107,0.117425 27.944,0.617425 28.5,1C 27.376,1.24917 26.376,1.74917 25.5,2.5C 26,2.83333 26.5,3.16667 27,3.5C 28.9214,2.80953 30.7547,2.4762 32.5,2.5C 32.6691,3.39656 33.0024,4.39656 33.5,5.5C 35.3492,4.40698 37.0158,3.07365 38.5,1.5C 40.4879,2.28881 40.8213,3.45548 39.5,5C 40.7375,5.23209 41.7375,5.73209 42.5,6.5C 31.7419,7.12842 21.2419,6.46175 11,4.5C 9.27099,7.07889 7.43766,7.07889 5.5,4.5C 3.82106,6.10446 1.82106,6.77112 -0.5,6.5C -0.5,4.83333 -0.5,3.16667 -0.5,1.5C 0.833333,1.5 1.5,0.833333 1.5,-0.5 Z"/></g>
<g><path style="opacity:1" fill="#9c9c9c" d="M 9.5,-0.5 C 10.1667,-0.5 10.8333,-0.5 11.5,-0.5C 10.8333,2.16667 10.1667,2.16667 9.5,-0.5 Z"/></g>
<g><path style="opacity:1" fill="#373737" d="M 14.5,-0.5 C 17.8333,-0.5 21.1667,-0.5 24.5,-0.5C 22.8459,3.69724 20.8459,4.03057 18.5,0.5C 16.3375,4.5811 15.0042,4.24777 14.5,-0.5 Z"/></g>
<g><path style="opacity:1" fill="#8f8f8f" d="M 4.5,-0.5 C 5.16667,-0.5 5.83333,-0.5 6.5,-0.5C 5.83333,2.16667 5.16667,2.16667 4.5,-0.5 Z"/></g>
<g><path style="opacity:1" fill="#8a8a8a" d="M 22.5,3.5 C 24.337,3.63945 24.6704,4.30612 23.5,5.5C 22.7025,5.04311 22.3691,4.37644 22.5,3.5 Z"/></g>
<g><path style="opacity:1" fill="#838383" d="M 62.5,3.5 C 64.337,3.63945 64.6704,4.30612 63.5,5.5C 62.7025,5.04311 62.3691,4.37644 62.5,3.5 Z"/></g>
<g><path style="opacity:1" fill="#f5f5f5" d="M 42.5,6.5 C 45.5184,6.33537 48.5184,6.50204 51.5,7C 51.0426,7.41395 50.7093,7.91395 50.5,8.5C 52.0116,9.08831 53.3449,9.42164 54.5,9.5C 54.0651,11.2967 54.0651,13.2967 54.5,15.5C 52.8974,14.3228 51.564,14.4894 50.5,16C 50.8333,16.3333 51.1667,16.6667 51.5,17C 47.9201,22.6905 44.2534,28.1905 40.5,33.5C 39.8333,34.8333 38.8333,35.8333 37.5,36.5C 35.8275,39.198 34.6608,42.198 34,45.5C 33,46.1667 32,46.8333 31,47.5C 28.6531,51.6005 26.4864,55.2671 24.5,58.5C 23.962,60.1172 23.6287,61.7839 23.5,63.5C 33.5,64.1667 43.5,64.8333 53.5,65.5C 52.1103,66.8993 51.1103,68.5659 50.5,70.5C 37.2764,71.046 24.1098,71.3793 11,71.5C 10.6192,70.5182 9.78591,69.8515 8.5,69.5C 7.32791,69.9186 6.32791,70.5853 5.5,71.5C 4.7836,70.689 3.95027,70.0223 3,69.5C 1.9231,70.4295 0.756437,71.0962 -0.5,71.5C -0.5,66.1667 -0.5,60.8333 -0.5,55.5C 1.06831,56.4731 2.73498,56.6397 4.5,56C 2.07116,55.5488 1.90449,54.7155 4,53.5C 4.33333,53.8333 4.66667,54.1667 5,54.5C 5.20041,52.6803 6.03374,51.347 7.5,50.5C 8.43448,49.4324 8.76781,48.099 8.5,46.5C 10.8196,45.0414 12.8196,43.2081 14.5,41C 13.7476,40.3292 13.4142,39.4959 13.5,38.5C 14.8333,37.8333 15.8333,36.8333 16.5,35.5C 18.2624,34.7377 19.2624,33.4044 19.5,31.5C 20.3382,31.1583 20.6716,30.4916 20.5,29.5C 22.9754,28.3126 23.9754,26.3126 23.5,23.5C 26.4285,21.8798 27.2618,19.5465 26,16.5C 26.9138,17.6537 27.7471,17.487 28.5,16C 27.2341,15.6905 26.0674,15.1905 25,14.5C 20.7492,14.9986 16.2492,15.332 11.5,15.5C 9.5,15.5 7.5,15.5 5.5,15.5C 3.11371,15.2587 1.11371,15.9254 -0.5,17.5C -0.5,13.8333 -0.5,10.1667 -0.5,6.5C 1.82106,6.77112 3.82106,6.10446 5.5,4.5C 7.43766,7.07889 9.27099,7.07889 11,4.5C 21.2419,6.46175 31.7419,7.12842 42.5,6.5 Z"/></g>
<g><path style="opacity:1" fill="#f3f3f3" d="M 119.5,4.5 C 119.5,4.83333 119.5,5.16667 119.5,5.5C 118.305,5.86562 117.639,6.69895 117.5,8C 117.833,10.6676 117.833,13.501 117.5,16.5C 115.5,16.8333 113.5,17.1667 111.5,17.5C 111.567,18.9587 111.234,20.2921 110.5,21.5C 108.167,23.1667 106.167,25.1667 104.5,27.5C 102.5,27.5 101.5,28.5 101.5,30.5C 97.3906,33.7879 97.7239,36.7879 102.5,39.5C 104.529,38.3707 104.863,38.8707 103.5,41C 104.572,42.2837 105.905,42.6171 107.5,42C 106.643,42.6891 105.977,43.5224 105.5,44.5C 108.106,45.7703 110.439,47.4369 112.5,49.5C 114.529,48.3707 114.863,48.8707 113.5,51C 114.044,51.7172 114.711,52.2172 115.5,52.5C 115.557,53.609 115.89,54.609 116.5,55.5C 115.972,56.8474 115.805,58.1807 116,59.5C 116.718,58.5494 117.551,58.3828 118.5,59C 116.28,62.1014 115.947,65.4347 117.5,69C 115.374,69.8984 113.374,71.065 111.5,72.5C 109.833,69.8333 108.167,69.8333 106.5,72.5C 104.941,71.9264 103.441,71.2598 102,70.5C 101.667,70.8333 101.333,71.1667 101,71.5C 100.186,66.1952 97.3524,62.5285 92.5,60.5C 91.2332,58.4112 90.5665,56.4112 90.5,54.5C 89.1938,53.5326 88.5271,52.1993 88.5,50.5C 87.209,50.2627 86.209,50.596 85.5,51.5C 83.5565,52.0783 83.2232,53.0783 84.5,54.5C 83.7261,55.7112 82.8928,55.7112 82,54.5C 79.47,56.4135 77.97,58.4135 77.5,60.5C 76.4415,61.6002 75.6082,62.9336 75,64.5C 73.6976,65.0848 72.531,65.7515 71.5,66.5C 68.5427,68.5121 66.2093,71.1787 64.5,74.5C 63.8333,74.5 63.1667,74.5 62.5,74.5C 62.5774,73.2502 63.244,72.4169 64.5,72C 60.2731,68.0313 59.6064,63.5313 62.5,58.5C 64.1788,58.7148 65.1788,58.0481 65.5,56.5C 69.4679,52.3669 73.6346,48.3669 78,44.5C 78.6667,43.1667 78.6667,41.8333 78,40.5C 76.117,39.3474 75.2837,37.6807 75.5,35.5C 74.1779,35.67 73.0113,35.3366 72,34.5C 71.2155,32.714 70.0488,31.214 68.5,30C 69.7112,29.1072 69.7112,28.2739 68.5,27.5C 66.5814,27.3863 64.5814,26.7196 62.5,25.5C 62.5,24.8333 62.5,24.1667 62.5,23.5C 62.1583,22.6618 61.4916,22.3284 60.5,22.5C 60.2786,19.7212 60.612,17.0545 61.5,14.5C 62.4916,14.6716 63.1583,14.3382 63.5,13.5C 67.5598,10.1091 70.8932,6.7758 73.5,3.5C 74.8587,5.69221 76.6921,7.35887 79,8.5C 79.0354,11.0356 79.5354,13.7022 80.5,16.5C 81.9778,16.238 83.3112,16.5713 84.5,17.5C 84.9976,19.664 86.1642,21.3306 88,22.5C 88.49,23.7932 88.6567,25.1266 88.5,26.5C 89.8333,26.5 91.1667,26.5 92.5,26.5C 92.5,25.5 92.5,24.5 92.5,23.5C 95.3455,23.1913 96.8455,21.5246 97,18.5C 101.829,15.8563 104.995,11.8563 106.5,6.5C 109.731,6.10206 112.731,5.10206 115.5,3.5C 116.192,4.02527 116.692,4.69194 117,5.5C 117.671,4.74756 118.504,4.41423 119.5,4.5 Z"/></g>
<g><path style="opacity:1" fill="#878787" d="M 102.5,3.5 C 103.978,3.23798 105.311,3.57131 106.5,4.5C 105.833,4.83333 105.167,5.16667 104.5,5.5C 103.287,5.25284 102.62,4.58617 102.5,3.5 Z"/></g>
<g><path style="opacity:1" fill="#929292" d="M 62.5,8.5 C 65.1667,9.16667 65.1667,9.83333 62.5,10.5C 62.5,9.83333 62.5,9.16667 62.5,8.5 Z"/></g>
<g><path style="opacity:1" fill="#909090" d="M 82.5,8.5 C 84.337,8.63945 84.6704,9.30612 83.5,10.5C 82.7025,10.0431 82.3691,9.37644 82.5,8.5 Z"/></g>
<g><path style="opacity:1" fill="#8f8f8f" d="M 92.5,8.5 C 94.337,8.63945 94.6704,9.30612 93.5,10.5C 92.7025,10.0431 92.3691,9.37644 92.5,8.5 Z"/></g>
<g><path style="opacity:1" fill="#898989" d="M 97.5,8.5 C 99.337,8.63945 99.6704,9.30612 98.5,10.5C 97.7025,10.0431 97.3691,9.37644 97.5,8.5 Z"/></g>
<g><path style="opacity:1" fill="#9c9c9c" d="M 102.5,8.5 C 104.337,8.63945 104.67,9.30612 103.5,10.5C 102.702,10.0431 102.369,9.37644 102.5,8.5 Z"/></g>
<g><path style="opacity:1" fill="#3a3a3a" d="M 86.5,5.5 C 88.5805,5.63401 90.5805,6.13401 92.5,7C 91.5,7.83333 90.5,8.66667 89.5,9.5C 91.1396,11.1396 92.8063,12.8063 94.5,14.5C 94.1667,14.8333 93.8333,15.1667 93.5,15.5C 91.8333,14.1667 90.1667,12.8333 88.5,11.5C 84.2498,15.4817 83.2498,16.1483 85.5,13.5C 85.2786,10.7212 85.612,8.05449 86.5,5.5 Z"/></g>
<g><path style="opacity:1" fill="#0a0a0a" d="M 61.5,14.5 C 60.612,17.0545 60.2786,19.7212 60.5,22.5C 59.5768,23.3029 58.5768,23.4696 57.5,23C 58.5742,22.2613 59.2409,21.2613 59.5,20C 58.1912,17.9748 56.5245,16.4748 54.5,15.5C 54.0651,13.2967 54.0651,11.2967 54.5,9.5C 55.5754,8.43764 56.5754,8.43764 57.5,9.5C 54.8292,14.4245 55.4959,14.7578 59.5,10.5C 60.3624,11.7658 61.0291,13.0992 61.5,14.5 Z"/></g>
<g><path style="opacity:1" fill="#272727" d="M 5.5,15.5 C 6.55114,16.2223 7.21781,17.2223 7.5,18.5C 7.32842,19.4916 7.66175,20.1583 8.5,20.5C 8.01746,22.8701 6.8508,23.5368 5,22.5C 4,26.5 3,26.5 2,22.5C 1.58309,23.756 0.749754,24.4226 -0.5,24.5C -0.5,22.1667 -0.5,19.8333 -0.5,17.5C 1.11371,15.9254 3.11371,15.2587 5.5,15.5 Z"/></g>
<g><path style="opacity:1" fill="#868686" d="M 7.5,18.5 C 9.42409,18.7107 9.75742,19.3774 8.5,20.5C 7.66175,20.1583 7.32842,19.4916 7.5,18.5 Z"/></g>
<g><path style="opacity:1" fill="#8c8c8c" d="M 92.5,18.5 C 94.337,18.6395 94.6704,19.3061 93.5,20.5C 92.7025,20.0431 92.3691,19.3764 92.5,18.5 Z"/></g>
<g><path style="opacity:1" fill="#8e8e8e" d="M 119.5,19.5 C 119.5,20.1667 119.5,20.8333 119.5,21.5C 116.833,20.8333 116.833,20.1667 119.5,19.5 Z"/></g>
<g><path style="opacity:1" fill="#080808" d="M 5.5,15.5 C 7.5,15.5 9.5,15.5 11.5,15.5C 11.3353,17.9933 11.1687,20.66 11,23.5C 12.298,22.4404 13.4647,21.2737 14.5,20C 13.548,18.6996 13.548,17.533 14.5,16.5C 15.2652,17.6119 16.2652,18.2786 17.5,18.5C 17.5,19.1667 17.5,19.8333 17.5,20.5C 15.1862,23.8343 15.8528,24.1677 19.5,21.5C 20.5207,22.9014 21.5207,24.2347 22.5,25.5C 21.1938,26.4674 20.5271,27.8007 20.5,29.5C 20.6716,30.4916 20.3382,31.1583 19.5,31.5C 18.8098,27.0681 16.8098,26.0681 13.5,28.5C 12.8333,27.8333 12.1667,27.1667 11.5,26.5C 9.67401,26.9202 7.67401,26.9202 5.5,26.5C 5.64945,27.552 5.48278,28.552 5,29.5C 4.32924,28.7476 3.4959,28.4142 2.5,28.5C 2.63088,27.6236 2.29755,26.9569 1.5,26.5C 0.824341,27.6016 0.157674,28.6016 -0.5,29.5C -0.5,27.8333 -0.5,26.1667 -0.5,24.5C 0.749754,24.4226 1.58309,23.756 2,22.5C 3,26.5 4,26.5 5,22.5C 6.8508,23.5368 8.01746,22.8701 8.5,20.5C 9.75742,19.3774 9.42409,18.7107 7.5,18.5C 7.21781,17.2223 6.55114,16.2223 5.5,15.5 Z"/></g>
<g><path style="opacity:1" fill="#222222" d="M 23.5,23.5 C 22.6618,23.8417 22.3284,24.5084 22.5,25.5C 21.5207,24.2347 20.5207,22.9014 19.5,21.5C 15.8528,24.1677 15.1862,23.8343 17.5,20.5C 20.1667,19.8333 20.1667,19.1667 17.5,18.5C 16.2652,18.2786 15.2652,17.6119 14.5,16.5C 13.548,17.533 13.548,18.6996 14.5,20C 13.4647,21.2737 12.298,22.4404 11,23.5C 11.1687,20.66 11.3353,17.9933 11.5,15.5C 16.2492,15.332 20.7492,14.9986 25,14.5C 26.0674,15.1905 27.2341,15.6905 28.5,16C 27.7471,17.487 26.9138,17.6537 26,16.5C 27.2618,19.5465 26.4285,21.8798 23.5,23.5 Z"/></g>
<g><path style="opacity:1" fill="#999999" d="M 22.5,18.5 C 24.337,18.6395 24.6704,19.3061 23.5,20.5C 22.7025,20.0431 22.3691,19.3764 22.5,18.5 Z"/></g>
<g><path style="opacity:1" fill="#9d9d9d" d="M 17.5,18.5 C 20.1667,19.1667 20.1667,19.8333 17.5,20.5C 17.5,19.8333 17.5,19.1667 17.5,18.5 Z"/></g>
<g><path style="opacity:1" fill="#818181" d="M 12.5,23.5 C 14.337,23.6395 14.6704,24.3061 13.5,25.5C 12.7025,25.0431 12.3691,24.3764 12.5,23.5 Z"/></g>
<g><path style="opacity:1" fill="#959595" d="M 119.5,24.5 C 119.5,25.1667 119.5,25.8333 119.5,26.5C 118.577,27.3029 117.577,27.4696 116.5,27C 117.078,25.583 118.078,24.7496 119.5,24.5 Z"/></g>
<g><path style="opacity:1" fill="#888888" d="M 23.5,23.5 C 23.9754,26.3126 22.9754,28.3126 20.5,29.5C 20.5271,27.8007 21.1938,26.4674 22.5,25.5C 22.3284,24.5084 22.6618,23.8417 23.5,23.5 Z"/></g>
<g><path style="opacity:1" fill="#363636" d="M 19.5,31.5 C 19.2624,33.4044 18.2624,34.7377 16.5,35.5C 15.5272,34.2086 14.5272,34.2086 13.5,35.5C 11.679,34.2723 10.679,32.6056 10.5,30.5C 9.12656,30.3433 7.79323,30.51 6.5,31C 7.71118,31.8928 7.71118,32.7261 6.5,33.5C 5.61432,32.675 5.28099,31.675 5.5,30.5C 3.82124,30.7148 2.82124,30.0481 2.5,28.5C 3.4959,28.4142 4.32924,28.7476 5,29.5C 5.48278,28.552 5.64945,27.552 5.5,26.5C 7.67401,26.9202 9.67401,26.9202 11.5,26.5C 12.1667,27.1667 12.8333,27.8333 13.5,28.5C 16.8098,26.0681 18.8098,27.0681 19.5,31.5 Z"/></g>
<g><path style="opacity:1" fill="#888888" d="M 104.5,27.5 C 104.5,28.5 104.5,29.5 104.5,30.5C 103.5,30.5 102.5,30.5 101.5,30.5C 101.5,28.5 102.5,27.5 104.5,27.5 Z"/></g>
<g><path style="opacity:1" fill="#262626" d="M 54.5,15.5 C 56.5245,16.4748 58.1912,17.9748 59.5,20C 59.2409,21.2613 58.5742,22.2613 57.5,23C 58.5768,23.4696 59.5768,23.3029 60.5,22.5C 61.4916,22.3284 62.1583,22.6618 62.5,23.5C 60.8297,23.7512 59.3297,24.4178 58,25.5C 56.3335,24.6598 56.1669,25.1598 57.5,27C 56.7562,28.0386 55.7562,28.5386 54.5,28.5C 51.8333,29.1667 51.8333,29.8333 54.5,30.5C 56.0443,30.2969 57.3777,29.6302 58.5,28.5C 58.8333,28.8333 59.1667,29.1667 59.5,29.5C 56.7053,31.5148 56.0386,34.0148 57.5,37C 56.1813,38.6279 54.8479,38.4613 53.5,36.5C 52.7025,36.9569 52.3691,37.6236 52.5,38.5C 50.9685,37.3226 49.4685,35.9893 48,34.5C 47.586,34.9574 47.086,35.2907 46.5,35.5C 45.7379,34.3717 45.0712,33.2051 44.5,32C 43.184,31.4719 42.5173,31.9719 42.5,33.5C 41.8333,33.5 41.1667,33.5 40.5,33.5C 44.2534,28.1905 47.9201,22.6905 51.5,17C 51.1667,16.6667 50.8333,16.3333 50.5,16C 51.564,14.4894 52.8974,14.3228 54.5,15.5 Z"/></g>
<g><path style="opacity:1" fill="#7f7f7f" d="M 52.5,23.5 C 54.337,23.6395 54.6704,24.3061 53.5,25.5C 52.7025,25.0431 52.3691,24.3764 52.5,23.5 Z"/></g>
<g><path style="opacity:1" fill="#9b9b9b" d="M 54.5,28.5 C 54.5,29.1667 54.5,29.8333 54.5,30.5C 51.8333,29.8333 51.8333,29.1667 54.5,28.5 Z"/></g>
<g><path style="opacity:1" fill="#222222" d="M 110.5,21.5 C 112.927,21.523 115.26,22.023 117.5,23C 115.926,23.3357 114.592,24.1691 113.5,25.5C 112.808,24.9747 112.308,24.3081 112,23.5C 111.616,25.1966 111.782,26.8632 112.5,28.5C 111.522,28.811 110.855,29.4777 110.5,30.5C 112.013,31.8463 113.347,33.3463 114.5,35C 112.797,36.3695 111.464,38.0362 110.5,40C 111.938,43.6815 113.938,44.1815 116.5,41.5C 117.696,41.8457 117.696,42.3457 116.5,43C 117.094,43.4643 117.761,43.631 118.5,43.5C 118.328,44.4916 118.662,45.1583 119.5,45.5C 119.5,45.8333 119.5,46.1667 119.5,46.5C 118.022,46.238 116.689,46.5713 115.5,47.5C 116.397,47.6691 117.397,48.0024 118.5,48.5C 117.828,50.1595 116.828,51.4928 115.5,52.5C 114.711,52.2172 114.044,51.7172 113.5,51C 114.863,48.8707 114.529,48.3707 112.5,49.5C 110.439,47.4369 108.106,45.7703 105.5,44.5C 105.977,43.5224 106.643,42.6891 107.5,42C 105.905,42.6171 104.572,42.2837 103.5,41C 104.863,38.8707 104.529,38.3707 102.5,39.5C 97.7239,36.7879 97.3906,33.7879 101.5,30.5C 102.5,30.5 103.5,30.5 104.5,30.5C 104.5,29.5 104.5,28.5 104.5,27.5C 106.167,25.1667 108.167,23.1667 110.5,21.5 Z"/></g>
<g><path style="opacity:1" fill="#121212" d="M 119.5,5.5 C 119.5,10.1667 119.5,14.8333 119.5,19.5C 116.833,20.1667 116.833,20.8333 119.5,21.5C 119.5,22.5 119.5,23.5 119.5,24.5C 118.078,24.7496 117.078,25.583 116.5,27C 117.577,27.4696 118.577,27.3029 119.5,26.5C 119.5,28.1667 119.5,29.8333 119.5,31.5C 117.77,30.0243 116.437,30.3576 115.5,32.5C 115.938,33.5063 116.604,33.5063 117.5,32.5C 118.711,33.2739 118.711,34.1072 117.5,35C 118.094,35.4643 118.761,35.631 119.5,35.5C 119.5,35.8333 119.5,36.1667 119.5,36.5C 115.107,36.4568 114.774,36.9568 118.5,38C 117.862,39.7067 117.862,41.54 118.5,43.5C 117.761,43.631 117.094,43.4643 116.5,43C 117.696,42.3457 117.696,41.8457 116.5,41.5C 113.938,44.1815 111.938,43.6815 110.5,40C 111.464,38.0362 112.797,36.3695 114.5,35C 113.347,33.3463 112.013,31.8463 110.5,30.5C 110.855,29.4777 111.522,28.811 112.5,28.5C 111.782,26.8632 111.616,25.1966 112,23.5C 112.308,24.3081 112.808,24.9747 113.5,25.5C 114.592,24.1691 115.926,23.3357 117.5,23C 115.26,22.023 112.927,21.523 110.5,21.5C 111.234,20.2921 111.567,18.9587 111.5,17.5C 113.5,17.1667 115.5,16.8333 117.5,16.5C 117.833,13.501 117.833,10.6676 117.5,8C 117.639,6.69895 118.305,5.86562 119.5,5.5 Z"/></g>
<g><path style="opacity:1" fill="#9d9d9d" d="M 112.5,28.5 C 114.337,28.6395 114.67,29.3061 113.5,30.5C 112.702,30.0431 112.369,29.3764 112.5,28.5 Z"/></g>
<g><path style="opacity:1" fill="#080808" d="M 2.5,28.5 C 2.82124,30.0481 3.82124,30.7148 5.5,30.5C 5.28099,31.675 5.61432,32.675 6.5,33.5C 7.71118,32.7261 7.71118,31.8928 6.5,31C 7.79323,30.51 9.12656,30.3433 10.5,30.5C 10.679,32.6056 11.679,34.2723 13.5,35.5C 14.5272,34.2086 15.5272,34.2086 16.5,35.5C 15.8333,36.8333 14.8333,37.8333 13.5,38.5C 12.8485,37.9094 12.1818,37.2427 11.5,36.5C 9.71447,38.9224 8.0478,38.9224 6.5,36.5C 5.15206,38.4613 3.81872,38.6279 2.5,37C 3.4158,36.7216 4.08247,36.2216 4.5,35.5C 4.5,34.1667 3.83333,33.5 2.5,33.5C 2.42265,32.2502 1.75598,31.4169 0.5,31C 1.06594,30.0053 1.73261,29.172 2.5,28.5 Z"/></g>
<g><path style="opacity:1" fill="#9a9a9a" d="M 119.5,31.5 C 119.5,32.8333 119.5,34.1667 119.5,35.5C 118.761,35.631 118.094,35.4643 117.5,35C 118.711,34.1072 118.711,33.2739 117.5,32.5C 116.604,33.5063 115.938,33.5063 115.5,32.5C 116.437,30.3576 117.77,30.0243 119.5,31.5 Z"/></g>
<g><path style="opacity:1" fill="#2a2a2a" d="M 62.5,25.5 C 64.5814,26.7196 66.5814,27.3863 68.5,27.5C 69.7112,28.2739 69.7112,29.1072 68.5,30C 70.0488,31.214 71.2155,32.714 72,34.5C 73.0113,35.3366 74.1779,35.67 75.5,35.5C 75.2837,37.6807 76.117,39.3474 78,40.5C 78.6667,41.8333 78.6667,43.1667 78,44.5C 73.6346,48.3669 69.4679,52.3669 65.5,56.5C 65.8841,54.3352 65.2174,52.6685 63.5,51.5C 62.7025,51.9569 62.3691,52.6236 62.5,53.5C 62.5,53.8333 62.5,54.1667 62.5,54.5C 60.8958,53.713 60.2291,52.3797 60.5,50.5C 59.325,50.719 58.325,50.3857 57.5,49.5C 60.4085,45.7029 63.0751,46.0362 65.5,50.5C 66.5896,49.6086 66.5896,48.6086 65.5,47.5C 66.376,46.7492 67.376,46.2492 68.5,46C 67.2718,45.221 66.2718,44.221 65.5,43C 66.0104,41.1739 66.8438,41.0072 68,42.5C 68.3837,39.3717 67.217,38.3717 64.5,39.5C 64.1583,38.6618 63.4916,38.3284 62.5,38.5C 61.6236,38.6309 60.9569,38.2975 60.5,37.5C 61.8532,36.4763 62.5198,35.143 62.5,33.5C 64.5901,33.5499 65.9234,32.5499 66.5,30.5C 65.6086,29.4104 64.6086,29.4104 63.5,30.5C 62.3185,29.4855 61.3185,28.3188 60.5,27C 60.8361,25.9701 61.5028,25.4701 62.5,25.5 Z"/></g>
<g><path style="opacity:1" fill="#898989" d="M 2.5,33.5 C 3.83333,33.5 4.5,34.1667 4.5,35.5C 3.16667,35.5 2.5,34.8333 2.5,33.5 Z"/></g>
<g><path style="opacity:1" fill="#959595" d="M 102.5,33.5 C 104.337,33.6395 104.67,34.3061 103.5,35.5C 102.702,35.0431 102.369,34.3764 102.5,33.5 Z"/></g>
<g><path style="opacity:1" fill="#939393" d="M 119.5,36.5 C 119.5,39.5 119.5,42.5 119.5,45.5C 118.662,45.1583 118.328,44.4916 118.5,43.5C 117.862,41.54 117.862,39.7067 118.5,38C 114.774,36.9568 115.107,36.4568 119.5,36.5 Z"/></g>
<g><path style="opacity:1" fill="#8c8c8c" d="M 112.5,38.5 C 114.337,38.6395 114.67,39.3061 113.5,40.5C 112.702,40.0431 112.369,39.3764 112.5,38.5 Z"/></g>
<g><path style="opacity:1" fill="#959595" d="M 107.5,38.5 C 109.337,38.6395 109.67,39.3061 108.5,40.5C 107.702,40.0431 107.369,39.3764 107.5,38.5 Z"/></g>
<g><path style="opacity:1" fill="#212121" d="M 2.5,28.5 C 1.73261,29.172 1.06594,30.0053 0.5,31C 1.75598,31.4169 2.42265,32.2502 2.5,33.5C 2.5,34.8333 3.16667,35.5 4.5,35.5C 4.08247,36.2216 3.4158,36.7216 2.5,37C 3.81872,38.6279 5.15206,38.4613 6.5,36.5C 8.0478,38.9224 9.71447,38.9224 11.5,36.5C 12.1818,37.2427 12.8485,37.9094 13.5,38.5C 13.4142,39.4959 13.7476,40.3292 14.5,41C 12.8196,43.2081 10.8196,45.0414 8.5,46.5C 7.32496,46.281 6.32496,46.6143 5.5,47.5C 5.84569,48.6956 6.34569,48.6956 7,47.5C 7.48278,48.448 7.64945,49.448 7.5,50.5C 6.03374,51.347 5.20041,52.6803 5,54.5C 4.66667,54.1667 4.33333,53.8333 4,53.5C 1.90449,54.7155 2.07116,55.5488 4.5,56C 2.73498,56.6397 1.06831,56.4731 -0.5,55.5C -0.5,46.8333 -0.5,38.1667 -0.5,29.5C 0.157674,28.6016 0.824341,27.6016 1.5,26.5C 2.29755,26.9569 2.63088,27.6236 2.5,28.5 Z"/></g>
<g><path style="opacity:1" fill="#2c2c2c" d="M 37.5,36.5 C 39.3863,39.3977 41.7196,42.0644 44.5,44.5C 42.7988,44.1896 41.1322,44.6896 39.5,46C 42.7697,46.9374 44.603,49.104 45,52.5C 45.7175,51.5494 46.5509,51.3828 47.5,52C 45.2974,56.1287 42.964,56.2954 40.5,52.5C 41.5063,51.6043 41.5063,50.9377 40.5,50.5C 39.8076,51.0253 39.3076,51.6919 39,52.5C 38.6667,52.1667 38.3333,51.8333 38,51.5C 37.0812,53.2393 35.9145,53.906 34.5,53.5C 33.1667,53.5 32.5,54.1667 32.5,55.5C 32.5,56.5 32.5,57.5 32.5,58.5C 30.9557,58.7031 29.6223,59.3698 28.5,60.5C 27.4763,59.1468 26.143,58.4802 24.5,58.5C 26.4864,55.2671 28.6531,51.6005 31,47.5C 32,46.8333 33,46.1667 34,45.5C 34.6608,42.198 35.8275,39.198 37.5,36.5 Z"/></g>
<g><path style="opacity:1" fill="#979797" d="M 8.5,46.5 C 8.76781,48.099 8.43448,49.4324 7.5,50.5C 7.64945,49.448 7.48278,48.448 7,47.5C 6.34569,48.6956 5.84569,48.6956 5.5,47.5C 6.32496,46.6143 7.32496,46.281 8.5,46.5 Z"/></g>
<g><path style="opacity:1" fill="#121212" d="M 62.5,23.5 C 62.5,24.1667 62.5,24.8333 62.5,25.5C 61.5028,25.4701 60.8361,25.9701 60.5,27C 61.3185,28.3188 62.3185,29.4855 63.5,30.5C 64.6086,29.4104 65.6086,29.4104 66.5,30.5C 65.9234,32.5499 64.5901,33.5499 62.5,33.5C 62.5198,35.143 61.8532,36.4763 60.5,37.5C 60.9569,38.2975 61.6236,38.6309 62.5,38.5C 62.7107,40.4241 63.3774,40.7574 64.5,39.5C 67.217,38.3717 68.3837,39.3717 68,42.5C 66.8438,41.0072 66.0104,41.1739 65.5,43C 66.2718,44.221 67.2718,45.221 68.5,46C 67.376,46.2492 66.376,46.7492 65.5,47.5C 66.5896,48.6086 66.5896,49.6086 65.5,50.5C 63.0751,46.0362 60.4085,45.7029 57.5,49.5C 58.325,50.3857 59.325,50.719 60.5,50.5C 60.2291,52.3797 60.8958,53.713 62.5,54.5C 63.0768,55.7733 63.7435,55.7733 64.5,54.5C 64.0431,53.7025 63.3764,53.3691 62.5,53.5C 62.3691,52.6236 62.7025,51.9569 63.5,51.5C 65.2174,52.6685 65.8841,54.3352 65.5,56.5C 65.1788,58.0481 64.1788,58.7148 62.5,58.5C 59.6064,63.5313 60.2731,68.0313 64.5,72C 63.244,72.4169 62.5774,73.2502 62.5,74.5C 59.8333,74.5 57.1667,74.5 54.5,74.5C 53.8333,71.8333 53.1667,71.8333 52.5,74.5C 49.8333,74.5 47.1667,74.5 44.5,74.5C 43.8333,71.8333 43.1667,71.8333 42.5,74.5C 39.8333,74.5 37.1667,74.5 34.5,74.5C 33.8333,71.8333 33.1667,71.8333 32.5,74.5C 29.8333,74.5 27.1667,74.5 24.5,74.5C 23.8333,71.8333 23.1667,71.8333 22.5,74.5C 19.8333,74.5 17.1667,74.5 14.5,74.5C 13.8333,71.8333 13.1667,71.8333 12.5,74.5C 8.16667,74.5 3.83333,74.5 -0.5,74.5C -0.5,73.5 -0.5,72.5 -0.5,71.5C 0.756437,71.0962 1.9231,70.4295 3,69.5C 3.95027,70.0223 4.7836,70.689 5.5,71.5C 6.32791,70.5853 7.32791,69.9186 8.5,69.5C 9.78591,69.8515 10.6192,70.5182 11,71.5C 24.1098,71.3793 37.2764,71.046 50.5,70.5C 50.56,71.0431 50.8933,71.3764 51.5,71.5C 52.5,70.5 53.5,69.5 54.5,68.5C 53.8728,67.5832 53.5394,66.5832 53.5,65.5C 54.0431,65.44 54.3764,65.1067 54.5,64.5C 53.624,63.7492 52.624,63.2492 51.5,63C 52.6956,62.3457 52.6956,61.8457 51.5,61.5C 50.1456,63.1836 48.4789,63.6836 46.5,63C 47.6956,62.3457 47.6956,61.8457 46.5,61.5C 45.1456,63.1836 43.4789,63.6836 41.5,63C 42.6956,62.3457 42.6956,61.8457 41.5,61.5C 38.432,63.4566 35.0987,63.9566 31.5,63C 32.6956,62.3457 32.6956,61.8457 31.5,61.5C 30.1456,63.1836 28.4789,63.6836 26.5,63C 27.6956,62.3457 27.6956,61.8457 26.5,61.5C 25.7348,62.6119 24.7348,63.2786 23.5,63.5C 23.6287,61.7839 23.962,60.1172 24.5,58.5C 26.143,58.4802 27.4763,59.1468 28.5,60.5C 29.6223,59.3698 30.9557,58.7031 32.5,58.5C 32.5,57.5 32.5,56.5 32.5,55.5C 33.8333,55.5 34.5,54.8333 34.5,53.5C 35.9145,53.906 37.0812,53.2393 38,51.5C 38.3333,51.8333 38.6667,52.1667 39,52.5C 39.3076,51.6919 39.8076,51.0253 40.5,50.5C 41.5063,50.9377 41.5063,51.6043 40.5,52.5C 42.964,56.2954 45.2974,56.1287 47.5,52C 46.5509,51.3828 45.7175,51.5494 45,52.5C 44.603,49.104 42.7697,46.9374 39.5,46C 41.1322,44.6896 42.7988,44.1896 44.5,44.5C 41.7196,42.0644 39.3863,39.3977 37.5,36.5C 38.8333,35.8333 39.8333,34.8333 40.5,33.5C 41.1667,33.5 41.8333,33.5 42.5,33.5C 42.5173,31.9719 43.184,31.4719 44.5,32C 45.0712,33.2051 45.7379,34.3717 46.5,35.5C 47.086,35.2907 47.586,34.9574 48,34.5C 49.4685,35.9893 50.9685,37.3226 52.5,38.5C 52.3691,37.6236 52.7025,36.9569 53.5,36.5C 54.8479,38.4613 56.1813,38.6279 57.5,37C 56.0386,34.0148 56.7053,31.5148 59.5,29.5C 59.1667,29.1667 58.8333,28.8333 58.5,28.5C 57.3777,29.6302 56.0443,30.2969 54.5,30.5C 54.5,29.8333 54.5,29.1667 54.5,28.5C 55.7562,28.5386 56.7562,28.0386 57.5,27C 56.1669,25.1598 56.3335,24.6598 58,25.5C 59.3297,24.4178 60.8297,23.7512 62.5,23.5 Z"/></g>
<g><path style="opacity:1" fill="#474747" d="M 52.5,38.5 C 54.045,39.2297 54.8784,40.563 55,42.5C 55.3333,42.1667 55.6667,41.8333 56,41.5C 55.3019,43.7638 55.8019,45.5972 57.5,47C 57,47.5 56.5,48 56,48.5C 54.3509,46.3501 52.5176,44.3501 50.5,42.5C 51.8532,41.4763 52.5198,40.143 52.5,38.5 Z"/></g>
<g><path style="opacity:1" fill="#363636" d="M 47.5,38.5 C 46.7611,38.369 46.0944,38.5357 45.5,39C 47.0139,40.439 47.3473,41.939 46.5,43.5C 44.5,41.5 42.5,39.5 40.5,37.5C 41.6313,36.3961 42.4646,36.7295 43,38.5C 44.9643,36.3123 46.4643,36.3123 47.5,38.5 Z"/></g>
<g><path style="opacity:1" fill="#a1a1a1" d="M 62.5,38.5 C 63.4916,38.3284 64.1583,38.6618 64.5,39.5C 63.3774,40.7574 62.7107,40.4241 62.5,38.5 Z"/></g>
<g><path style="opacity:1" fill="#898989" d="M 47.5,38.5 C 49.337,38.6395 49.6704,39.3061 48.5,40.5C 47.7025,40.0431 47.3691,39.3764 47.5,38.5 Z"/></g>
<g><path style="opacity:1" fill="#7e7e7e" d="M 42.5,33.5 C 44.337,33.6395 44.6704,34.3061 43.5,35.5C 42.7025,35.0431 42.3691,34.3764 42.5,33.5 Z"/></g>
<g><path style="opacity:1" fill="#909090" d="M 52.5,48.5 C 54.337,48.6395 54.6704,49.3061 53.5,50.5C 52.7025,50.0431 52.3691,49.3764 52.5,48.5 Z"/></g>
<g><path style="opacity:1" fill="#828282" d="M 2.5,48.5 C 4.33702,48.6395 4.67036,49.3061 3.5,50.5C 2.70245,50.0431 2.36912,49.3764 2.5,48.5 Z"/></g>
<g><path style="opacity:1" fill="#969696" d="M 119.5,46.5 C 119.5,48.5 119.5,50.5 119.5,52.5C 116.402,52.4125 116.068,52.9125 118.5,54C 117.956,54.7172 117.289,55.2172 116.5,55.5C 115.89,54.609 115.557,53.609 115.5,52.5C 116.828,51.4928 117.828,50.1595 118.5,48.5C 117.397,48.0024 116.397,47.6691 115.5,47.5C 116.689,46.5713 118.022,46.238 119.5,46.5 Z"/></g>
<g><path style="opacity:1" fill="#9d9d9d" d="M 34.5,53.5 C 34.5,54.8333 33.8333,55.5 32.5,55.5C 32.5,54.1667 33.1667,53.5 34.5,53.5 Z"/></g>
<g><path style="opacity:1" fill="#989898" d="M 62.5,53.5 C 63.3764,53.3691 64.0431,53.7025 64.5,54.5C 63.7435,55.7733 63.0768,55.7733 62.5,54.5C 62.5,54.1667 62.5,53.8333 62.5,53.5 Z"/></g>
<g><path style="opacity:1" fill="#494949" d="M 90.5,54.5 C 89.7553,55.7988 88.2553,57.1322 86,58.5C 85.8849,56.8932 86.3849,55.3932 87.5,54C 86.4909,53.6454 85.8243,52.8121 85.5,51.5C 86.209,50.596 87.209,50.2627 88.5,50.5C 88.5271,52.1993 89.1938,53.5326 90.5,54.5 Z"/></g>
<g><path style="opacity:1" fill="#909090" d="M 32.5,58.5 C 34.337,58.6395 34.6704,59.3061 33.5,60.5C 32.7025,60.0431 32.3691,59.3764 32.5,58.5 Z"/></g>
<g><path style="opacity:1" fill="#999999" d="M 37.5,58.5 C 39.337,58.6395 39.6704,59.3061 38.5,60.5C 37.7025,60.0431 37.3691,59.3764 37.5,58.5 Z"/></g>
<g><path style="opacity:1" fill="#969696" d="M 42.5,58.5 C 44.337,58.6395 44.6704,59.3061 43.5,60.5C 42.7025,60.0431 42.3691,59.3764 42.5,58.5 Z"/></g>
<g><path style="opacity:1" fill="#9b9b9b" d="M 57.5,58.5 C 59.337,58.6395 59.6704,59.3061 58.5,60.5C 57.7025,60.0431 57.3691,59.3764 57.5,58.5 Z"/></g>
<g><path style="opacity:1" fill="#9c9c9c" d="M 119.5,60.5 C 119.5,61.5 119.5,62.5 119.5,63.5C 117.443,63.0433 117.443,62.0433 119.5,60.5 Z"/></g>
<g><path style="opacity:1" fill="#969696" d="M 53.5,65.5 C 43.5,64.8333 33.5,64.1667 23.5,63.5C 24.7348,63.2786 25.7348,62.6119 26.5,61.5C 27.6956,61.8457 27.6956,62.3457 26.5,63C 28.4789,63.6836 30.1456,63.1836 31.5,61.5C 32.6956,61.8457 32.6956,62.3457 31.5,63C 35.0987,63.9566 38.432,63.4566 41.5,61.5C 42.6956,61.8457 42.6956,62.3457 41.5,63C 43.4789,63.6836 45.1456,63.1836 46.5,61.5C 47.6956,61.8457 47.6956,62.3457 46.5,63C 48.4789,63.6836 50.1456,63.1836 51.5,61.5C 52.6956,61.8457 52.6956,62.3457 51.5,63C 52.624,63.2492 53.624,63.7492 54.5,64.5C 54.3764,65.1067 54.0431,65.44 53.5,65.5 Z"/></g>
<g><path style="opacity:1" fill="#363636" d="M 77.5,60.5 C 77.7611,63.6329 79.4277,64.7995 82.5,64C 80.7295,63.4646 80.3961,62.6313 81.5,61.5C 82.9675,62.6953 84.4675,62.6953 86,61.5C 87.1712,62.3396 88.3379,63.1729 89.5,64C 87.6972,65.262 86.3639,66.9287 85.5,69C 86.0944,69.4643 86.7611,69.631 87.5,69.5C 87.6309,70.3764 87.2975,71.0431 86.5,71.5C 85.549,70.6744 84.549,70.5078 83.5,71C 84.3366,72.0113 84.67,73.1779 84.5,74.5C 83.8333,74.5 83.1667,74.5 82.5,74.5C 82.5198,72.857 81.8532,71.5237 80.5,70.5C 81.6872,69.4805 82.6872,68.3139 83.5,67C 81.324,66.8371 79.4907,66.0037 78,64.5C 76.2458,66.25 74.0792,66.9167 71.5,66.5C 72.531,65.7515 73.6976,65.0848 75,64.5C 75.6082,62.9336 76.4415,61.6002 77.5,60.5 Z"/></g>
<g><path style="opacity:1" fill="#535353" d="M 92.5,61.5 C 93.1667,62.8333 93.8333,64.1667 94.5,65.5C 93.4168,65.5394 92.4168,65.8728 91.5,66.5C 91.1667,65.6667 90.8333,64.8333 90.5,64C 90.6842,62.6244 91.3509,61.7911 92.5,61.5 Z"/></g>
<g><path style="opacity:1" fill="#131313" d="M 82.5,74.5 C 79.8333,74.5 77.1667,74.5 74.5,74.5C 73.8333,71.8333 73.1667,71.8333 72.5,74.5C 69.8333,74.5 67.1667,74.5 64.5,74.5C 66.2093,71.1787 68.5427,68.5121 71.5,66.5C 74.0792,66.9167 76.2458,66.25 78,64.5C 79.4907,66.0037 81.324,66.8371 83.5,67C 82.6872,68.3139 81.6872,69.4805 80.5,70.5C 81.8532,71.5237 82.5198,72.857 82.5,74.5 Z"/></g>
<g><path style="opacity:1" fill="#1f1f1f" d="M 119.5,52.5 C 119.5,55.1667 119.5,57.8333 119.5,60.5C 117.443,62.0433 117.443,63.0433 119.5,63.5C 119.5,67.1667 119.5,70.8333 119.5,74.5C 110.5,74.5 101.5,74.5 92.5,74.5C 92.5198,72.857 91.8532,71.5237 90.5,70.5C 90.9569,69.7025 91.6236,69.3691 92.5,69.5C 93.8333,69.5 94.5,68.8333 94.5,67.5C 94.5,66.8333 94.5,66.1667 94.5,65.5C 93.8333,64.1667 93.1667,62.8333 92.5,61.5C 92.5,61.1667 92.5,60.8333 92.5,60.5C 97.3524,62.5285 100.186,66.1952 101,71.5C 101.333,71.1667 101.667,70.8333 102,70.5C 103.441,71.2598 104.941,71.9264 106.5,72.5C 108.167,69.8333 109.833,69.8333 111.5,72.5C 113.374,71.065 115.374,69.8984 117.5,69C 115.947,65.4347 116.28,62.1014 118.5,59C 117.551,58.3828 116.718,58.5494 116,59.5C 115.805,58.1807 115.972,56.8474 116.5,55.5C 117.289,55.2172 117.956,54.7172 118.5,54C 116.068,52.9125 116.402,52.4125 119.5,52.5 Z"/></g>
<g><path style="opacity:1" fill="#939393" d="M 57.5,67.5 C 59.337,67.6395 59.6704,68.3061 58.5,69.5C 57.7025,69.0431 57.3691,68.3764 57.5,67.5 Z"/></g>
<g><path style="opacity:1" fill="#8a8a8a" d="M 72.5,67.5 C 74.337,67.6395 74.6704,68.3061 73.5,69.5C 72.7025,69.0431 72.3691,68.3764 72.5,67.5 Z"/></g>
<g><path style="opacity:1" fill="#909090" d="M 77.5,67.5 C 79.337,67.6395 79.6704,68.3061 78.5,69.5C 77.7025,69.0431 77.3691,68.3764 77.5,67.5 Z"/></g>
<g><path style="opacity:1" fill="#878787" d="M 94.5,67.5 C 94.5,68.8333 93.8333,69.5 92.5,69.5C 92.5,68.1667 93.1667,67.5 94.5,67.5 Z"/></g>
<g><path style="opacity:1" fill="#6c6c6c" d="M 53.5,65.5 C 53.5394,66.5832 53.8728,67.5832 54.5,68.5C 53.5,69.5 52.5,70.5 51.5,71.5C 50.8933,71.3764 50.56,71.0431 50.5,70.5C 51.1103,68.5659 52.1103,66.8993 53.5,65.5 Z"/></g>
<g><path style="opacity:1" fill="#090909" d="M 85.5,51.5 C 85.8243,52.8121 86.4909,53.6454 87.5,54C 86.3849,55.3932 85.8849,56.8932 86,58.5C 88.2553,57.1322 89.7553,55.7988 90.5,54.5C 90.5665,56.4112 91.2332,58.4112 92.5,60.5C 92.5,60.8333 92.5,61.1667 92.5,61.5C 91.3509,61.7911 90.6842,62.6244 90.5,64C 90.8333,64.8333 91.1667,65.6667 91.5,66.5C 92.4168,65.8728 93.4168,65.5394 94.5,65.5C 94.5,66.1667 94.5,66.8333 94.5,67.5C 93.1667,67.5 92.5,68.1667 92.5,69.5C 91.6236,69.3691 90.9569,69.7025 90.5,70.5C 91.8532,71.5237 92.5198,72.857 92.5,74.5C 89.8333,74.5 87.1667,74.5 84.5,74.5C 84.67,73.1779 84.3366,72.0113 83.5,71C 84.549,70.5078 85.549,70.6744 86.5,71.5C 87.2975,71.0431 87.6309,70.3764 87.5,69.5C 86.7611,69.631 86.0944,69.4643 85.5,69C 86.3639,66.9287 87.6972,65.262 89.5,64C 88.3379,63.1729 87.1712,62.3396 86,61.5C 84.4675,62.6953 82.9675,62.6953 81.5,61.5C 80.3961,62.6313 80.7295,63.4646 82.5,64C 79.4277,64.7995 77.7611,63.6329 77.5,60.5C 77.97,58.4135 79.47,56.4135 82,54.5C 82.8928,55.7112 83.7261,55.7112 84.5,54.5C 83.2232,53.0783 83.5565,52.0783 85.5,51.5 Z"/></g>
<g><path style="opacity:1" fill="#969696" d="M 87.5,69.5 C 87.6395,67.663 88.3061,67.3296 89.5,68.5C 89.0431,69.2975 88.3764,69.6309 87.5,69.5 Z"/></g>
<g><path style="opacity:1" fill="#8f8f8f" d="M 87.5,58.5 C 89.337,58.6395 89.6704,59.3061 88.5,60.5C 87.7025,60.0431 87.3691,59.3764 87.5,58.5 Z"/></g>
<g><path style="opacity:1" fill="#909090" d="M 82.5,58.5 C 84.337,58.6395 84.6704,59.3061 83.5,60.5C 82.7025,60.0431 82.3691,59.3764 82.5,58.5 Z"/></g>
<g><path style="opacity:1" fill="#8d8d8d" d="M 14.5,74.5 C 13.8333,74.5 13.1667,74.5 12.5,74.5C 13.1667,71.8333 13.8333,71.8333 14.5,74.5 Z"/></g>
<g><path style="opacity:1" fill="#929292" d="M 24.5,74.5 C 23.8333,74.5 23.1667,74.5 22.5,74.5C 23.1667,71.8333 23.8333,71.8333 24.5,74.5 Z"/></g>
<g><path style="opacity:1" fill="#8c8c8c" d="M 34.5,74.5 C 33.8333,74.5 33.1667,74.5 32.5,74.5C 33.1667,71.8333 33.8333,71.8333 34.5,74.5 Z"/></g>
<g><path style="opacity:1" fill="#909090" d="M 44.5,74.5 C 43.8333,74.5 43.1667,74.5 42.5,74.5C 43.1667,71.8333 43.8333,71.8333 44.5,74.5 Z"/></g>
<g><path style="opacity:1" fill="#8e8e8e" d="M 54.5,74.5 C 53.8333,74.5 53.1667,74.5 52.5,74.5C 53.1667,71.8333 53.8333,71.8333 54.5,74.5 Z"/></g>
<g><path style="opacity:1" fill="#969696" d="M 74.5,74.5 C 73.8333,74.5 73.1667,74.5 72.5,74.5C 73.1667,71.8333 73.8333,71.8333 74.5,74.5 Z"/></g>
</svg>
